%TF.GenerationSoftware,KiCad,Pcbnew,10.0.0*%
%TF.CreationDate,2026-06-16T19:37:24-05:00*%
%TF.ProjectId,POMODORO,504f4d4f-444f-4524-9f2e-6b696361645f,rev?*%
%TF.SameCoordinates,Original*%
%TF.FileFunction,Legend,Top*%
%TF.FilePolarity,Positive*%
%FSLAX46Y46*%
G04 Gerber Fmt 4.6, Leading zero omitted, Abs format (unit mm)*
G04 Created by KiCad (PCBNEW 10.0.0) date 2026-06-16 19:37:24*
%MOMM*%
%LPD*%
G01*
G04 APERTURE LIST*
%ADD10C,0.150000*%
%ADD11C,0.127000*%
%ADD12C,0.300000*%
%ADD13C,0.120000*%
%ADD14C,0.200000*%
G04 APERTURE END LIST*
D10*
X83528866Y-29044999D02*
X82128866Y-29044999D01*
X82128866Y-29044999D02*
X82128866Y-28711666D01*
X82128866Y-28711666D02*
X82195533Y-28511666D01*
X82195533Y-28511666D02*
X82328866Y-28378333D01*
X82328866Y-28378333D02*
X82462200Y-28311666D01*
X82462200Y-28311666D02*
X82728866Y-28244999D01*
X82728866Y-28244999D02*
X82928866Y-28244999D01*
X82928866Y-28244999D02*
X83195533Y-28311666D01*
X83195533Y-28311666D02*
X83328866Y-28378333D01*
X83328866Y-28378333D02*
X83462200Y-28511666D01*
X83462200Y-28511666D02*
X83528866Y-28711666D01*
X83528866Y-28711666D02*
X83528866Y-29044999D01*
X83462200Y-27711666D02*
X83528866Y-27511666D01*
X83528866Y-27511666D02*
X83528866Y-27178333D01*
X83528866Y-27178333D02*
X83462200Y-27044999D01*
X83462200Y-27044999D02*
X83395533Y-26978333D01*
X83395533Y-26978333D02*
X83262200Y-26911666D01*
X83262200Y-26911666D02*
X83128866Y-26911666D01*
X83128866Y-26911666D02*
X82995533Y-26978333D01*
X82995533Y-26978333D02*
X82928866Y-27044999D01*
X82928866Y-27044999D02*
X82862200Y-27178333D01*
X82862200Y-27178333D02*
X82795533Y-27444999D01*
X82795533Y-27444999D02*
X82728866Y-27578333D01*
X82728866Y-27578333D02*
X82662200Y-27644999D01*
X82662200Y-27644999D02*
X82528866Y-27711666D01*
X82528866Y-27711666D02*
X82395533Y-27711666D01*
X82395533Y-27711666D02*
X82262200Y-27644999D01*
X82262200Y-27644999D02*
X82195533Y-27578333D01*
X82195533Y-27578333D02*
X82128866Y-27444999D01*
X82128866Y-27444999D02*
X82128866Y-27111666D01*
X82128866Y-27111666D02*
X82195533Y-26911666D01*
X83528866Y-25578333D02*
X83528866Y-26378333D01*
X83528866Y-25978333D02*
X82128866Y-25978333D01*
X82128866Y-25978333D02*
X82328866Y-26111666D01*
X82328866Y-26111666D02*
X82462200Y-26245000D01*
X82462200Y-26245000D02*
X82528866Y-26378333D01*
X89398874Y-88595665D02*
X89398874Y-89233086D01*
X89398874Y-89233086D02*
X89436370Y-89308076D01*
X89436370Y-89308076D02*
X89473865Y-89345572D01*
X89473865Y-89345572D02*
X89548856Y-89383067D01*
X89548856Y-89383067D02*
X89698837Y-89383067D01*
X89698837Y-89383067D02*
X89773828Y-89345572D01*
X89773828Y-89345572D02*
X89811323Y-89308076D01*
X89811323Y-89308076D02*
X89848818Y-89233086D01*
X89848818Y-89233086D02*
X89848818Y-88595665D01*
X90148781Y-88595665D02*
X90636220Y-88595665D01*
X90636220Y-88595665D02*
X90373753Y-88895628D01*
X90373753Y-88895628D02*
X90486239Y-88895628D01*
X90486239Y-88895628D02*
X90561229Y-88933123D01*
X90561229Y-88933123D02*
X90598725Y-88970618D01*
X90598725Y-88970618D02*
X90636220Y-89045609D01*
X90636220Y-89045609D02*
X90636220Y-89233086D01*
X90636220Y-89233086D02*
X90598725Y-89308076D01*
X90598725Y-89308076D02*
X90561229Y-89345572D01*
X90561229Y-89345572D02*
X90486239Y-89383067D01*
X90486239Y-89383067D02*
X90261267Y-89383067D01*
X90261267Y-89383067D02*
X90186276Y-89345572D01*
X90186276Y-89345572D02*
X90148781Y-89308076D01*
X62988206Y-181574416D02*
X62988206Y-180933194D01*
X62988206Y-180933194D02*
X63140878Y-180933194D01*
X63140878Y-180933194D02*
X63232481Y-180963728D01*
X63232481Y-180963728D02*
X63293550Y-181024797D01*
X63293550Y-181024797D02*
X63324085Y-181085866D01*
X63324085Y-181085866D02*
X63354619Y-181208003D01*
X63354619Y-181208003D02*
X63354619Y-181299606D01*
X63354619Y-181299606D02*
X63324085Y-181421744D01*
X63324085Y-181421744D02*
X63293550Y-181482813D01*
X63293550Y-181482813D02*
X63232481Y-181543882D01*
X63232481Y-181543882D02*
X63140878Y-181574416D01*
X63140878Y-181574416D02*
X62988206Y-181574416D01*
X63598894Y-180994263D02*
X63629428Y-180963728D01*
X63629428Y-180963728D02*
X63690497Y-180933194D01*
X63690497Y-180933194D02*
X63843169Y-180933194D01*
X63843169Y-180933194D02*
X63904238Y-180963728D01*
X63904238Y-180963728D02*
X63934772Y-180994263D01*
X63934772Y-180994263D02*
X63965307Y-181055331D01*
X63965307Y-181055331D02*
X63965307Y-181116400D01*
X63965307Y-181116400D02*
X63934772Y-181208003D01*
X63934772Y-181208003D02*
X63568360Y-181574416D01*
X63568360Y-181574416D02*
X63965307Y-181574416D01*
X66605714Y-141849104D02*
X67081904Y-141849104D01*
X66510476Y-142134819D02*
X66843809Y-141134819D01*
X66843809Y-141134819D02*
X67177142Y-142134819D01*
X68034285Y-142134819D02*
X67462857Y-142134819D01*
X67748571Y-142134819D02*
X67748571Y-141134819D01*
X67748571Y-141134819D02*
X67653333Y-141277676D01*
X67653333Y-141277676D02*
X67558095Y-141372914D01*
X67558095Y-141372914D02*
X67462857Y-141420533D01*
X114624200Y-161751666D02*
X114690866Y-161551666D01*
X114690866Y-161551666D02*
X114690866Y-161218333D01*
X114690866Y-161218333D02*
X114624200Y-161084999D01*
X114624200Y-161084999D02*
X114557533Y-161018333D01*
X114557533Y-161018333D02*
X114424200Y-160951666D01*
X114424200Y-160951666D02*
X114290866Y-160951666D01*
X114290866Y-160951666D02*
X114157533Y-161018333D01*
X114157533Y-161018333D02*
X114090866Y-161084999D01*
X114090866Y-161084999D02*
X114024200Y-161218333D01*
X114024200Y-161218333D02*
X113957533Y-161484999D01*
X113957533Y-161484999D02*
X113890866Y-161618333D01*
X113890866Y-161618333D02*
X113824200Y-161684999D01*
X113824200Y-161684999D02*
X113690866Y-161751666D01*
X113690866Y-161751666D02*
X113557533Y-161751666D01*
X113557533Y-161751666D02*
X113424200Y-161684999D01*
X113424200Y-161684999D02*
X113357533Y-161618333D01*
X113357533Y-161618333D02*
X113290866Y-161484999D01*
X113290866Y-161484999D02*
X113290866Y-161151666D01*
X113290866Y-161151666D02*
X113357533Y-160951666D01*
X113424200Y-160418333D02*
X113357533Y-160351666D01*
X113357533Y-160351666D02*
X113290866Y-160218333D01*
X113290866Y-160218333D02*
X113290866Y-159885000D01*
X113290866Y-159885000D02*
X113357533Y-159751666D01*
X113357533Y-159751666D02*
X113424200Y-159685000D01*
X113424200Y-159685000D02*
X113557533Y-159618333D01*
X113557533Y-159618333D02*
X113690866Y-159618333D01*
X113690866Y-159618333D02*
X113890866Y-159685000D01*
X113890866Y-159685000D02*
X114690866Y-160485000D01*
X114690866Y-160485000D02*
X114690866Y-159618333D01*
X87853095Y-23489819D02*
X87853095Y-24299342D01*
X87853095Y-24299342D02*
X87900714Y-24394580D01*
X87900714Y-24394580D02*
X87948333Y-24442200D01*
X87948333Y-24442200D02*
X88043571Y-24489819D01*
X88043571Y-24489819D02*
X88234047Y-24489819D01*
X88234047Y-24489819D02*
X88329285Y-24442200D01*
X88329285Y-24442200D02*
X88376904Y-24394580D01*
X88376904Y-24394580D02*
X88424523Y-24299342D01*
X88424523Y-24299342D02*
X88424523Y-23489819D01*
X88853095Y-23585057D02*
X88900714Y-23537438D01*
X88900714Y-23537438D02*
X88995952Y-23489819D01*
X88995952Y-23489819D02*
X89234047Y-23489819D01*
X89234047Y-23489819D02*
X89329285Y-23537438D01*
X89329285Y-23537438D02*
X89376904Y-23585057D01*
X89376904Y-23585057D02*
X89424523Y-23680295D01*
X89424523Y-23680295D02*
X89424523Y-23775533D01*
X89424523Y-23775533D02*
X89376904Y-23918390D01*
X89376904Y-23918390D02*
X88805476Y-24489819D01*
X88805476Y-24489819D02*
X89424523Y-24489819D01*
X124022200Y-128381666D02*
X124088866Y-128181666D01*
X124088866Y-128181666D02*
X124088866Y-127848333D01*
X124088866Y-127848333D02*
X124022200Y-127714999D01*
X124022200Y-127714999D02*
X123955533Y-127648333D01*
X123955533Y-127648333D02*
X123822200Y-127581666D01*
X123822200Y-127581666D02*
X123688866Y-127581666D01*
X123688866Y-127581666D02*
X123555533Y-127648333D01*
X123555533Y-127648333D02*
X123488866Y-127714999D01*
X123488866Y-127714999D02*
X123422200Y-127848333D01*
X123422200Y-127848333D02*
X123355533Y-128114999D01*
X123355533Y-128114999D02*
X123288866Y-128248333D01*
X123288866Y-128248333D02*
X123222200Y-128314999D01*
X123222200Y-128314999D02*
X123088866Y-128381666D01*
X123088866Y-128381666D02*
X122955533Y-128381666D01*
X122955533Y-128381666D02*
X122822200Y-128314999D01*
X122822200Y-128314999D02*
X122755533Y-128248333D01*
X122755533Y-128248333D02*
X122688866Y-128114999D01*
X122688866Y-128114999D02*
X122688866Y-127781666D01*
X122688866Y-127781666D02*
X122755533Y-127581666D01*
X124088866Y-126248333D02*
X124088866Y-127048333D01*
X124088866Y-126648333D02*
X122688866Y-126648333D01*
X122688866Y-126648333D02*
X122888866Y-126781666D01*
X122888866Y-126781666D02*
X123022200Y-126915000D01*
X123022200Y-126915000D02*
X123088866Y-127048333D01*
X110771249Y-58977350D02*
X111581194Y-58977350D01*
X111581194Y-58977350D02*
X111676482Y-58929707D01*
X111676482Y-58929707D02*
X111724126Y-58882063D01*
X111724126Y-58882063D02*
X111771769Y-58786775D01*
X111771769Y-58786775D02*
X111771769Y-58596200D01*
X111771769Y-58596200D02*
X111724126Y-58500912D01*
X111724126Y-58500912D02*
X111676482Y-58453269D01*
X111676482Y-58453269D02*
X111581194Y-58405625D01*
X111581194Y-58405625D02*
X110771249Y-58405625D01*
X111771769Y-57405105D02*
X111771769Y-57976830D01*
X111771769Y-57690967D02*
X110771249Y-57690967D01*
X110771249Y-57690967D02*
X110914181Y-57786255D01*
X110914181Y-57786255D02*
X111009468Y-57881543D01*
X111009468Y-57881543D02*
X111057112Y-57976830D01*
%TO.C,DS1*%
D11*
X21000000Y-114900000D02*
X21000000Y-28900000D01*
X27000000Y-22900000D02*
X75000000Y-22900000D01*
X75000000Y-120900000D02*
X27000000Y-120900000D01*
X81000000Y-28900000D02*
X81000000Y-114900000D01*
D12*
X82150000Y-32900000D02*
G75*
G02*
X81850000Y-32900000I-150000J0D01*
G01*
X81850000Y-32900000D02*
G75*
G02*
X82150000Y-32900000I150000J0D01*
G01*
%TO.C,U3*%
D11*
X88025400Y-86527800D02*
X90025400Y-86027800D01*
X88025400Y-91527800D02*
X88025400Y-86527800D01*
X90025400Y-86027800D02*
X92025400Y-86527800D01*
X90025400Y-92027800D02*
X88025400Y-91527800D01*
X92025400Y-86527800D02*
X92025400Y-87027800D01*
X92025400Y-87027800D02*
X92025400Y-91027800D01*
X92025400Y-91027800D02*
X92025400Y-91527800D01*
X92025400Y-91527800D02*
X90025400Y-92027800D01*
X92025400Y-87027800D02*
G75*
G02*
X92025400Y-91027800I-749998J-2000000D01*
G01*
%TO.C,D2*%
X60893500Y-183900000D02*
G75*
G02*
X60766500Y-183900000I-63500J0D01*
G01*
X60766500Y-183900000D02*
G75*
G02*
X60893500Y-183900000I63500J0D01*
G01*
X66230000Y-185500000D02*
G75*
G02*
X61230000Y-185500000I-2500000J0D01*
G01*
X61230000Y-185500000D02*
G75*
G02*
X66230000Y-185500000I2500000J0D01*
G01*
X66680000Y-185500000D02*
G75*
G02*
X60780000Y-185500000I-2950000J0D01*
G01*
X60780000Y-185500000D02*
G75*
G02*
X66680000Y-185500000I2950000J0D01*
G01*
%TO.C,A1*%
D13*
X29680000Y-155960000D02*
X29680000Y-167640000D01*
X29680000Y-167640000D02*
X36030000Y-167640000D01*
X34130000Y-126750000D02*
X34130000Y-135890000D01*
X34130000Y-135890000D02*
X36030000Y-135890000D01*
X36030000Y-123570000D02*
X36030000Y-126750000D01*
X36030000Y-126750000D02*
X34130000Y-126750000D01*
X36030000Y-135890000D02*
X36030000Y-155960000D01*
X36030000Y-155960000D02*
X29680000Y-155960000D01*
X36030000Y-167640000D02*
X36030000Y-177170000D01*
X36030000Y-177170000D02*
X100680000Y-177170000D01*
X100680000Y-177170000D02*
X102330000Y-175520000D01*
X102330000Y-123570000D02*
X36030000Y-123570000D01*
X102330000Y-126240000D02*
X102330000Y-123570000D01*
X102330000Y-164090000D02*
X104870000Y-161550000D01*
X102330000Y-175520000D02*
X102330000Y-164090000D01*
X104870000Y-128780000D02*
X102330000Y-126240000D01*
X104870000Y-161550000D02*
X104870000Y-128780000D01*
%TO.C,S2*%
D11*
X115750000Y-157050000D02*
X115750000Y-163050000D01*
X115750000Y-163050000D02*
X121750000Y-163050000D01*
X121750000Y-157050000D02*
X115750000Y-157050000D01*
X121750000Y-163050000D02*
X121750000Y-157050000D01*
D14*
X121100000Y-166300000D02*
G75*
G02*
X120900000Y-166300000I-100000J0D01*
G01*
X120900000Y-166300000D02*
G75*
G02*
X121100000Y-166300000I100000J0D01*
G01*
%TO.C,U2*%
D11*
X85710000Y-30580000D02*
X103710000Y-30580000D01*
X85710000Y-72080000D02*
X85710000Y-30580000D01*
X103710000Y-30580000D02*
X103710000Y-72080000D01*
X103710000Y-72080000D02*
X85710000Y-72080000D01*
D14*
X85240000Y-31850000D02*
G75*
G02*
X85040000Y-31850000I-100000J0D01*
G01*
X85040000Y-31850000D02*
G75*
G02*
X85240000Y-31850000I100000J0D01*
G01*
%TO.C,S1*%
D11*
X115750000Y-124950000D02*
X115750000Y-130950000D01*
X115750000Y-130950000D02*
X121750000Y-130950000D01*
X121750000Y-124950000D02*
X115750000Y-124950000D01*
X121750000Y-130950000D02*
X121750000Y-124950000D01*
D14*
X116600000Y-121700000D02*
G75*
G02*
X116400000Y-121700000I-100000J0D01*
G01*
X116400000Y-121700000D02*
G75*
G02*
X116600000Y-121700000I100000J0D01*
G01*
%TO.C,U1*%
D11*
X112270000Y-16230000D02*
X113470000Y-16230000D01*
X112270000Y-61230000D02*
X112270000Y-16230000D01*
X113470000Y-16230000D02*
X113470000Y-17230000D01*
X113470000Y-17230000D02*
X113470000Y-33230000D01*
X113470000Y-17230000D02*
X127270000Y-17230000D01*
X113470000Y-33230000D02*
X113470000Y-44230000D01*
X113470000Y-33230000D02*
X127270000Y-33230000D01*
X113470000Y-44230000D02*
X113470000Y-60230000D01*
X113470000Y-44230000D02*
X127270000Y-44230000D01*
X113470000Y-60230000D02*
X113470000Y-61230000D01*
X113470000Y-60230000D02*
X127270000Y-60230000D01*
X113470000Y-61230000D02*
X112270000Y-61230000D01*
X127270000Y-33230000D02*
X127270000Y-17230000D01*
X127270000Y-60230000D02*
X127270000Y-44230000D01*
%TD*%
M02*
