%TF.GenerationSoftware,KiCad,Pcbnew,10.0.0*%
%TF.CreationDate,2026-06-16T19:37:24-05:00*%
%TF.ProjectId,POMODORO,504f4d4f-444f-4524-9f2e-6b696361645f,rev?*%
%TF.SameCoordinates,Original*%
%TF.FileFunction,Soldermask,Top*%
%TF.FilePolarity,Negative*%
%FSLAX46Y46*%
G04 Gerber Fmt 4.6, Leading zero omitted, Abs format (unit mm)*
G04 Created by KiCad (PCBNEW 10.0.0) date 2026-06-16 19:37:24*
%MOMM*%
%LPD*%
G01*
G04 APERTURE LIST*
G04 Aperture macros list*
%AMRoundRect*
0 Rectangle with rounded corners*
0 $1 Rounding radius*
0 $2 $3 $4 $5 $6 $7 $8 $9 X,Y pos of 4 corners*
0 Add a 4 corners polygon primitive as box body*
4,1,4,$2,$3,$4,$5,$6,$7,$8,$9,$2,$3,0*
0 Add four circle primitives for the rounded corners*
1,1,$1+$1,$2,$3*
1,1,$1+$1,$4,$5*
1,1,$1+$1,$6,$7*
1,1,$1+$1,$8,$9*
0 Add four rect primitives between the rounded corners*
20,1,$1+$1,$2,$3,$4,$5,0*
20,1,$1+$1,$4,$5,$6,$7,0*
20,1,$1+$1,$6,$7,$8,$9,0*
20,1,$1+$1,$8,$9,$2,$3,0*%
G04 Aperture macros list end*
%ADD10RoundRect,0.102000X-0.900000X0.900000X-0.900000X-0.900000X0.900000X-0.900000X0.900000X0.900000X0*%
%ADD11C,2.004000*%
%ADD12C,5.304000*%
%ADD13C,1.524800*%
%ADD14C,1.712000*%
%ADD15RoundRect,0.102000X-0.754000X-0.754000X0.754000X-0.754000X0.754000X0.754000X-0.754000X0.754000X0*%
%ADD16R,1.600000X1.600000*%
%ADD17O,1.600000X1.600000*%
%ADD18RoundRect,0.102000X0.700000X-1.050000X0.700000X1.050000X-0.700000X1.050000X-0.700000X-1.050000X0*%
%ADD19RoundRect,0.102000X-0.700000X1.050000X-0.700000X-1.050000X0.700000X-1.050000X0.700000X1.050000X0*%
%ADD20C,1.734000*%
G04 APERTURE END LIST*
D10*
%TO.C,DS1*%
X78460000Y-32900000D03*
D11*
X78460000Y-35440000D03*
X78460000Y-37980000D03*
X78460000Y-40520000D03*
X78460000Y-43060000D03*
X78460000Y-45600000D03*
X78460000Y-48140000D03*
X78460000Y-50680000D03*
X78460000Y-53220000D03*
X78460000Y-55760000D03*
X78460000Y-58300000D03*
X78460000Y-60840000D03*
X78460000Y-63380000D03*
X78460000Y-65920000D03*
X78460000Y-68460000D03*
X78460000Y-71000000D03*
D12*
X78500000Y-25400000D03*
X78500000Y-118400000D03*
X23500000Y-25400000D03*
X23500000Y-118400000D03*
%TD*%
D13*
%TO.C,U3*%
X90025400Y-89027800D03*
X90025400Y-91527800D03*
X90025400Y-86527800D03*
%TD*%
D14*
%TO.C,D2*%
X65000000Y-185500000D03*
D15*
X62460000Y-185500000D03*
%TD*%
D16*
%TO.C,A1*%
X64100000Y-126240000D03*
D17*
X66640000Y-126240000D03*
X69180000Y-126240000D03*
X71720000Y-126240000D03*
X74260000Y-126240000D03*
X76800000Y-126240000D03*
X79340000Y-126240000D03*
X81880000Y-126240000D03*
X86960000Y-126240000D03*
X89500000Y-126240000D03*
X92040000Y-126240000D03*
X94580000Y-126240000D03*
X97120000Y-126240000D03*
X99660000Y-126240000D03*
X99660000Y-174500000D03*
X97120000Y-174500000D03*
X94580000Y-174500000D03*
X92040000Y-174500000D03*
X89500000Y-174500000D03*
X86960000Y-174500000D03*
X84420000Y-174500000D03*
X81880000Y-174500000D03*
X77820000Y-174500000D03*
X75280000Y-174500000D03*
X72740000Y-174500000D03*
X70200000Y-174500000D03*
X67660000Y-174500000D03*
X65120000Y-174500000D03*
X62580000Y-174500000D03*
X60040000Y-174500000D03*
X57500000Y-174500000D03*
X54960000Y-174500000D03*
%TD*%
D18*
%TO.C,S2*%
X121000000Y-164600000D03*
X121000000Y-155500000D03*
X116500000Y-164600000D03*
X116500000Y-155500000D03*
%TD*%
D15*
%TO.C,U2*%
X86960000Y-32480000D03*
D14*
X86960000Y-35020000D03*
X86960000Y-37560000D03*
X86960000Y-40100000D03*
X86960000Y-42640000D03*
X86960000Y-45180000D03*
X86960000Y-47720000D03*
X86960000Y-50260000D03*
X86960000Y-52800000D03*
X86960000Y-55340000D03*
X86960000Y-57880000D03*
X86960000Y-60420000D03*
X86960000Y-62960000D03*
X86960000Y-65500000D03*
X86960000Y-68040000D03*
X86960000Y-70580000D03*
X90960000Y-31850000D03*
X93500000Y-31850000D03*
X96040000Y-31850000D03*
X98580000Y-31850000D03*
%TD*%
D19*
%TO.C,S1*%
X116500000Y-123400000D03*
X116500000Y-132500000D03*
X121000000Y-123400000D03*
X121000000Y-132500000D03*
%TD*%
D20*
%TO.C,U1*%
X108000000Y-42540000D03*
X108000000Y-40000000D03*
X108000000Y-37460000D03*
X108000000Y-34920000D03*
%TD*%
M02*
