%TF.GenerationSoftware,KiCad,Pcbnew,10.0.0*%
%TF.CreationDate,2026-06-16T19:37:24-05:00*%
%TF.ProjectId,POMODORO,504f4d4f-444f-4524-9f2e-6b696361645f,rev?*%
%TF.SameCoordinates,Original*%
%TF.FileFunction,Copper,L2,Bot*%
%TF.FilePolarity,Positive*%
%FSLAX46Y46*%
G04 Gerber Fmt 4.6, Leading zero omitted, Abs format (unit mm)*
G04 Created by KiCad (PCBNEW 10.0.0) date 2026-06-16 19:37:24*
%MOMM*%
%LPD*%
G01*
G04 APERTURE LIST*
%TA.AperFunction,ComponentPad*%
%ADD10R,1.800000X1.800000*%
%TD*%
%TA.AperFunction,ComponentPad*%
%ADD11C,1.800000*%
%TD*%
%TA.AperFunction,ComponentPad*%
%ADD12C,5.100000*%
%TD*%
%TA.AperFunction,ComponentPad*%
%ADD13C,1.320800*%
%TD*%
%TA.AperFunction,ComponentPad*%
%ADD14C,1.508000*%
%TD*%
%TA.AperFunction,ComponentPad*%
%ADD15R,1.508000X1.508000*%
%TD*%
%TA.AperFunction,ComponentPad*%
%ADD16R,1.600000X1.600000*%
%TD*%
%TA.AperFunction,ComponentPad*%
%ADD17O,1.600000X1.600000*%
%TD*%
%TA.AperFunction,ComponentPad*%
%ADD18C,1.530000*%
%TD*%
%TA.AperFunction,Conductor*%
%ADD19C,0.200000*%
%TD*%
G04 APERTURE END LIST*
D10*
%TO.P,DS1,1,VSS_1*%
%TO.N,Net-(DS1-VSS)*%
X78460000Y-32900000D03*
D11*
%TO.P,DS1,2,VDD_2*%
%TO.N,Net-(DS1-VDD)*%
X78460000Y-35440000D03*
%TO.P,DS1,3,V0_3*%
%TO.N,Net-(DS1-V0)*%
X78460000Y-37980000D03*
%TO.P,DS1,4,RS_4*%
%TO.N,Net-(DS1-RS)*%
X78460000Y-40520000D03*
%TO.P,DS1,5,R/W_5*%
%TO.N,Net-(DS1-R{slash}W)*%
X78460000Y-43060000D03*
%TO.P,DS1,6,E_6*%
%TO.N,Net-(DS1-E)*%
X78460000Y-45600000D03*
%TO.P,DS1,7,DB0_7*%
%TO.N,Net-(DS1-DB0)*%
X78460000Y-48140000D03*
%TO.P,DS1,8,DB1_8*%
%TO.N,Net-(DS1-DB1)*%
X78460000Y-50680000D03*
%TO.P,DS1,9,DB2_9*%
%TO.N,Net-(DS1-DB2)*%
X78460000Y-53220000D03*
%TO.P,DS1,10,DB3_10*%
%TO.N,Net-(DS1-DB3)*%
X78460000Y-55760000D03*
%TO.P,DS1,11,DB4_11*%
%TO.N,Net-(DS1-DB4)*%
X78460000Y-58300000D03*
%TO.P,DS1,12,DB5_12*%
%TO.N,Net-(DS1-DB5)*%
X78460000Y-60840000D03*
%TO.P,DS1,13,DB6_13*%
%TO.N,Net-(DS1-DB6)*%
X78460000Y-63380000D03*
%TO.P,DS1,14,DB7_14*%
%TO.N,Net-(DS1-DB7)*%
X78460000Y-65920000D03*
%TO.P,DS1,15,A_15*%
%TO.N,Net-(DS1-A)*%
X78460000Y-68460000D03*
%TO.P,DS1,16,K_16*%
%TO.N,Net-(DS1-K)*%
X78460000Y-71000000D03*
D12*
%TO.P,DS1,S1,SHIELD_S1*%
%TO.N,Net-(DS1-SHIELD-PadS1)*%
X78500000Y-25400000D03*
%TO.P,DS1,S2,SHIELD_S2*%
X78500000Y-118400000D03*
%TO.P,DS1,S3,SHIELD_S3*%
X23500000Y-25400000D03*
%TO.P,DS1,S4,SHIELD_S4*%
X23500000Y-118400000D03*
%TD*%
D13*
%TO.P,U3,GND,GND_GND*%
%TO.N,Net-(A1-GND-Pad29)*%
X90025400Y-89027800D03*
%TO.P,U3,OUT,OUT_OUT*%
%TO.N,Net-(A1-D3{slash}SCL)*%
X90025400Y-91527800D03*
%TO.P,U3,VCC,V+_VCC*%
%TO.N,Net-(A1-+5V)*%
X90025400Y-86527800D03*
%TD*%
D14*
%TO.P,D2,A,A_A*%
%TO.N,Net-(A1-D6)*%
X65000000Y-185500000D03*
D15*
%TO.P,D2,C,C_C*%
%TO.N,Net-(A1-GND-Pad29)*%
X62460000Y-185500000D03*
%TD*%
D16*
%TO.P,A1,1,NC_1*%
%TO.N,unconnected-(A1-NC-Pad1)*%
X64100000Y-126240000D03*
D17*
%TO.P,A1,2,IOREF_2*%
%TO.N,unconnected-(A1-IOREF-Pad2)*%
X66640000Y-126240000D03*
%TO.P,A1,3,~{RESET}_3*%
%TO.N,unconnected-(A1-~{RESET}-Pad3)*%
X69180000Y-126240000D03*
%TO.P,A1,4,3V3_4*%
%TO.N,unconnected-(A1-3V3-Pad4)*%
X71720000Y-126240000D03*
%TO.P,A1,5,+5V_5*%
%TO.N,Net-(A1-+5V)*%
X74260000Y-126240000D03*
%TO.P,A1,6,GND_6*%
%TO.N,unconnected-(A1-GND-Pad6)*%
X76800000Y-126240000D03*
%TO.P,A1,7,GND_7*%
%TO.N,unconnected-(A1-GND-Pad7)*%
X79340000Y-126240000D03*
%TO.P,A1,8,VIN_8*%
%TO.N,unconnected-(A1-VIN-Pad8)*%
X81880000Y-126240000D03*
%TO.P,A1,9,A0_9*%
%TO.N,unconnected-(A1-A0-Pad9)*%
X86960000Y-126240000D03*
%TO.P,A1,10,A1_10*%
%TO.N,unconnected-(A1-A1-Pad10)*%
X89500000Y-126240000D03*
%TO.P,A1,11,A2_11*%
%TO.N,unconnected-(A1-A2-Pad11)*%
X92040000Y-126240000D03*
%TO.P,A1,12,A3_12*%
%TO.N,unconnected-(A1-A3-Pad12)*%
X94580000Y-126240000D03*
%TO.P,A1,13,A4_13*%
%TO.N,Net-(A1-A4)*%
X97120000Y-126240000D03*
%TO.P,A1,14,A5_14*%
%TO.N,Net-(A1-A5)*%
X99660000Y-126240000D03*
%TO.P,A1,15,D0/RX_15*%
%TO.N,unconnected-(A1-D0{slash}RX-Pad15)*%
X99660000Y-174500000D03*
%TO.P,A1,16,D1/TX_16*%
%TO.N,unconnected-(A1-D1{slash}TX-Pad16)*%
X97120000Y-174500000D03*
%TO.P,A1,17,D2/SDA_17*%
%TO.N,unconnected-(A1-D2{slash}SDA-Pad17)*%
X94580000Y-174500000D03*
%TO.P,A1,18,D3/SCL_18*%
%TO.N,Net-(A1-D3{slash}SCL)*%
X92040000Y-174500000D03*
%TO.P,A1,19,D4_19*%
%TO.N,Net-(A1-D4)*%
X89500000Y-174500000D03*
%TO.P,A1,20,D5_20*%
%TO.N,Net-(A1-D5)*%
X86960000Y-174500000D03*
%TO.P,A1,21,D6_21*%
%TO.N,Net-(A1-D6)*%
X84420000Y-174500000D03*
%TO.P,A1,22,D7_22*%
%TO.N,unconnected-(A1-D7-Pad22)*%
X81880000Y-174500000D03*
%TO.P,A1,23,D8_23*%
%TO.N,Net-(A1-D8)*%
X77820000Y-174500000D03*
%TO.P,A1,24,D9_24*%
%TO.N,Net-(A1-D9)*%
X75280000Y-174500000D03*
%TO.P,A1,25,D10_25*%
%TO.N,unconnected-(A1-D10-Pad25)*%
X72740000Y-174500000D03*
%TO.P,A1,26,D11_26*%
%TO.N,unconnected-(A1-D11-Pad26)*%
X70200000Y-174500000D03*
%TO.P,A1,27,D12_27*%
%TO.N,unconnected-(A1-D12-Pad27)*%
X67660000Y-174500000D03*
%TO.P,A1,28,D13_28*%
%TO.N,unconnected-(A1-D13-Pad28)*%
X65120000Y-174500000D03*
%TO.P,A1,29,GND_29*%
%TO.N,Net-(A1-GND-Pad29)*%
X62580000Y-174500000D03*
%TO.P,A1,30,AREF_30*%
%TO.N,unconnected-(A1-AREF-Pad30)*%
X60040000Y-174500000D03*
%TO.P,A1,31,SDA/D2_31*%
%TO.N,unconnected-(A1-SDA{slash}D2-Pad31)*%
X57500000Y-174500000D03*
%TO.P,A1,32,SCL/D3_32*%
%TO.N,unconnected-(A1-SCL{slash}D3-Pad32)*%
X54960000Y-174500000D03*
%TD*%
D15*
%TO.P,U2,1,1_1*%
%TO.N,Net-(DS1-VSS)*%
X86960000Y-32480000D03*
D14*
%TO.P,U2,2,2_2*%
%TO.N,Net-(DS1-VDD)*%
X86960000Y-35020000D03*
%TO.P,U2,3,3_3*%
%TO.N,Net-(DS1-V0)*%
X86960000Y-37560000D03*
%TO.P,U2,4,4_4*%
%TO.N,Net-(DS1-RS)*%
X86960000Y-40100000D03*
%TO.P,U2,5,5_5*%
%TO.N,Net-(DS1-R{slash}W)*%
X86960000Y-42640000D03*
%TO.P,U2,6,6_6*%
%TO.N,Net-(DS1-E)*%
X86960000Y-45180000D03*
%TO.P,U2,7,7_7*%
%TO.N,Net-(DS1-DB0)*%
X86960000Y-47720000D03*
%TO.P,U2,8,8_8*%
%TO.N,Net-(DS1-DB1)*%
X86960000Y-50260000D03*
%TO.P,U2,9,9_9*%
%TO.N,Net-(DS1-DB2)*%
X86960000Y-52800000D03*
%TO.P,U2,10,10_10*%
%TO.N,Net-(DS1-DB3)*%
X86960000Y-55340000D03*
%TO.P,U2,11,11_11*%
%TO.N,Net-(DS1-DB4)*%
X86960000Y-57880000D03*
%TO.P,U2,12,12_12*%
%TO.N,Net-(DS1-DB5)*%
X86960000Y-60420000D03*
%TO.P,U2,13,13_13*%
%TO.N,Net-(DS1-DB6)*%
X86960000Y-62960000D03*
%TO.P,U2,14,14_14*%
%TO.N,Net-(DS1-DB7)*%
X86960000Y-65500000D03*
%TO.P,U2,15,15_15*%
%TO.N,Net-(DS1-A)*%
X86960000Y-68040000D03*
%TO.P,U2,16,16_16*%
%TO.N,Net-(DS1-K)*%
X86960000Y-70580000D03*
%TO.P,U2,17,GND_17*%
%TO.N,Net-(U1-GND)*%
X90960000Y-31850000D03*
%TO.P,U2,18,VCC_18*%
%TO.N,Net-(A1-+5V)*%
X93500000Y-31850000D03*
%TO.P,U2,19,SDA_19*%
%TO.N,Net-(A1-A4)*%
X96040000Y-31850000D03*
%TO.P,U2,20,SCL_20*%
%TO.N,Net-(A1-A5)*%
X98580000Y-31850000D03*
%TD*%
D18*
%TO.P,U1,1,VCC_1*%
%TO.N,Net-(A1-+5V)*%
X108000000Y-42540000D03*
%TO.P,U1,2,TRIG_2*%
%TO.N,Net-(A1-D4)*%
X108000000Y-40000000D03*
%TO.P,U1,3,ECHO_3*%
%TO.N,Net-(A1-D5)*%
X108000000Y-37460000D03*
%TO.P,U1,4,GND_4*%
%TO.N,Net-(U1-GND)*%
X108000000Y-34920000D03*
%TD*%
%TO.N,Net-(DS1-SHIELD-PadS1)*%
D19*
X23500000Y-25400000D02*
X78500000Y-25400000D01*
X78500000Y-118400000D02*
X23500000Y-118400000D01*
X78500000Y-25400000D02*
X77000000Y-26900000D01*
X77000000Y-116900000D02*
X78500000Y-118400000D01*
X77000000Y-26900000D02*
X77000000Y-116900000D01*
%TO.N,Net-(A1-GND-Pad29)*%
X62580000Y-149064365D02*
X89065000Y-122579365D01*
X62580000Y-174500000D02*
X62580000Y-149064365D01*
X89065000Y-122579365D02*
X89065000Y-89988200D01*
X89065000Y-89988200D02*
X90025400Y-89027800D01*
%TO.N,Net-(A1-D3{slash}SCL)*%
X88060000Y-126695635D02*
X88060000Y-125784365D01*
X63680000Y-151075635D02*
X88060000Y-126695635D01*
X64324365Y-175600000D02*
X63680000Y-174955635D01*
X64324365Y-175600000D02*
X90940000Y-175600000D01*
X92040000Y-174500000D02*
X90940000Y-175600000D01*
X88060000Y-125784365D02*
X90025400Y-123818965D01*
X63680000Y-174955635D02*
X63680000Y-151075635D01*
X90025400Y-123818965D02*
X90025400Y-91527800D01*
%TO.N,Net-(A1-+5V)*%
X96554418Y-38935000D02*
X108441138Y-38935000D01*
X109065000Y-39558862D02*
X109065000Y-41475000D01*
X90523418Y-30796000D02*
X89906000Y-31413418D01*
X89906000Y-32286582D02*
X96554418Y-38935000D01*
X92446000Y-30796000D02*
X90523418Y-30796000D01*
X108441138Y-38935000D02*
X109065000Y-39558862D01*
X93500000Y-31850000D02*
X92446000Y-30796000D01*
X109065000Y-41475000D02*
X108000000Y-42540000D01*
X89906000Y-31413418D02*
X89906000Y-32286582D01*
%TO.N,Net-(A1-A5)*%
X98580000Y-125160000D02*
X99660000Y-126240000D01*
%TO.N,Net-(A1-D4)*%
X106935000Y-41065000D02*
X108000000Y-40000000D01*
X106935000Y-154287000D02*
X106935000Y-41065000D01*
X108324000Y-155676000D02*
X89500000Y-174500000D01*
X108324000Y-155676000D02*
X106935000Y-154287000D01*
%TO.N,Net-(U1-GND)*%
X106525000Y-36395000D02*
X108000000Y-34920000D01*
X90960000Y-31850000D02*
X95505000Y-36395000D01*
X95505000Y-36395000D02*
X106525000Y-36395000D01*
%TD*%
M02*
